<svg width="29" height="29" viewBox="0 0 29 29" fill="none" xmlns="http://www.w3.org/2000/svg">
<circle cx="14.5" cy="14.5" r="14.5" fill="#140033"/>
<path d="M18.8315 21.3982C17.9915 22.1897 17.0744 22.0648 16.1916 21.6898C15.2573 21.3065 14.4002 21.2899 13.4145 21.6898C12.1802 22.2064 11.5288 22.0564 10.7917 21.3982C6.60896 17.207 7.22609 10.8245 11.9745 10.5912C13.1316 10.6495 13.9373 11.2078 14.6145 11.2578C15.6259 11.0578 16.5944 10.4829 17.6744 10.5579C18.9686 10.6579 19.9457 11.1578 20.5886 12.0577C17.9144 13.6158 18.5486 17.0404 21 17.9986C20.5114 19.2485 19.8772 20.49 18.8229 21.4065L18.8315 21.3982ZM14.5287 10.5412C14.4002 8.68312 15.9516 7.14998 17.7344 7C17.9829 9.14973 15.7287 10.7495 14.5287 10.5412Z" fill="white"/>
</svg>
