<svg width="29" height="29" viewBox="0 0 29 29" fill="none" xmlns="http://www.w3.org/2000/svg">
<path d="M28.5 14.5C28.5 22.232 22.232 28.5 14.5 28.5C6.76801 28.5 0.5 22.232 0.5 14.5C0.5 6.76801 6.76801 0.5 14.5 0.5C22.232 0.5 28.5 6.76801 28.5 14.5Z" stroke="#140033" stroke-opacity="0.2"/>
<g clip-path="url(#clip0_906_332)">
<path d="M23.6862 15.1686C23.6862 14.4312 23.626 13.893 23.4957 13.335H15.0234V16.6634H19.9965C19.8962 17.4906 19.3548 18.7363 18.1516 19.5734L18.1348 19.6848L20.8135 21.7475L20.9991 21.7659C22.7036 20.2013 23.6862 17.8992 23.6862 15.1686Z" fill="#0079FB"/>
<path d="M15.0241 23.9384C17.4605 23.9384 19.5058 23.1411 20.9998 21.7659L18.1523 19.5734C17.3903 20.1015 16.3676 20.4703 15.0241 20.4703C12.6378 20.4703 10.6125 18.9057 9.89057 16.7432L9.78475 16.7521L6.99932 18.8947L6.96289 18.9954C8.44678 21.9252 11.4948 23.9384 15.0241 23.9384Z" fill="#34A853"/>
<path d="M9.89019 16.7431C9.69969 16.185 9.58944 15.587 9.58944 14.9692C9.58944 14.3513 9.69969 13.7534 9.88016 13.1953L9.87512 13.0765L7.05478 10.8994L6.96251 10.943C6.35093 12.1589 6 13.5242 6 14.9692C6 16.4142 6.35093 17.7795 6.96251 18.9953L9.89019 16.7431Z" fill="#FBBC05"/>
<path d="M15.0241 9.46802C16.7185 9.46802 17.8615 10.1955 18.5132 10.8035L21.0599 8.33196C19.4959 6.88695 17.4605 6 15.0241 6C11.4948 6 8.44678 8.01305 6.96289 10.9429L9.88055 13.1952C10.6125 11.0326 12.6378 9.46802 15.0241 9.46802Z" fill="#EB4335"/>
</g>
<defs>
<clipPath id="clip0_906_332">
<rect width="17.6949" height="18" fill="white" transform="translate(6 6)"/>
</clipPath>
</defs>
</svg>
