<svg width="264" height="144" viewBox="0 0 264 144" fill="none" xmlns="http://www.w3.org/2000/svg">
<path d="M110.467 41.8448H6.96661C-4.5332 36.3447 1.46681 25.8448 17.4666 27.8448C25.4665 8.345 42.9666 14.3448 42.9666 14.3448C52.9665 -1.6553 70.0573 -5.15537 82.4666 14.3448C111.466 7.34473 110.467 41.8448 110.467 41.8448Z" stroke="#140033" stroke-linecap="round"/>
<path d="M149.971 83.6895H253.471C272.467 86.8447 258.971 67.6895 242.971 69.6895C234.971 50.1897 217.471 56.1895 217.471 56.1895C207.471 40.1894 190.38 36.6894 177.971 56.1895C148.971 49.1895 149.971 83.6895 149.971 83.6895Z" stroke="#140033" stroke-linecap="round"/>
<path d="M163.797 27.5113C163.271 27.4676 162.74 27.4676 162.214 27.5113H54.103C53.4101 27.5199 52.7218 27.6036 52.0566 27.7602L107.85 72.5291L163.797 27.5113Z" fill="#FFB027"/>
<path d="M169.51 31.8359L113.292 76.947C111.846 78.1059 109.888 78.7564 107.848 78.7564C105.808 78.7564 103.851 78.1059 102.404 76.947L46.6882 32.1782C46.517 32.6854 46.4261 33.2081 46.418 33.7337V95.9559C46.418 97.6062 47.2316 99.1888 48.6798 100.356C50.128 101.523 52.0921 102.178 54.1402 102.178H162.251C164.299 102.178 166.264 101.523 167.712 100.356C169.16 99.1888 169.974 97.6062 169.974 95.9559V33.7337C169.943 33.0855 169.786 32.4452 169.51 31.8359ZM59.4299 95.9559H54.063V91.507L82.1332 69.0759L87.5774 73.4626L59.4299 95.9559ZM162.174 95.9559H156.769L128.621 73.4626L134.065 69.0759L162.135 91.507L162.174 95.9559Z" fill="#FFB027"/>
<circle cx="164.967" cy="108.845" r="35" fill="#BBFFDF"/>
<circle cx="164.967" cy="108.845" r="24.5" stroke="#32D184" stroke-width="3"/>
<path d="M153.967 102.403L165.566 116.732C166.003 117.272 166.845 117.212 167.201 116.615L190.967 76.8447" stroke="#34A853" stroke-width="4" stroke-linecap="round"/>
</svg>
